G04*
G04 #@! TF.GenerationSoftware,Altium Limited,Altium Designer,21.8.1 (53)*
G04*
G04 Layer_Color=2752767*
%FSLAX44Y44*%
%MOMM*%
G71*
G04*
G04 #@! TF.SameCoordinates,4F22C770-9D15-417D-9D0D-A021CFFA2AF0*
G04*
G04*
G04 #@! TF.FilePolarity,Positive*
G04*
G01*
G75*
%ADD22C,0.0508*%
%ADD23C,0.0677*%
D22*
X1180338Y573278D02*
Y577342D01*
X1184402D01*
Y573278D01*
X1180338D01*
X766318D02*
Y577342D01*
X770382D01*
Y573278D01*
X766318D01*
X1180338Y1030478D02*
Y1034542D01*
X1184402D01*
Y1030478D01*
X1180338D01*
X766318Y1029208D02*
Y1033272D01*
X770382D01*
Y1029208D01*
X766318D01*
X922020Y963568D02*
X919988Y967632D01*
X924052D01*
X922020Y963568D01*
X922020Y1013568D02*
X919988Y1017632D01*
X924052D01*
X922020Y1013568D01*
X825970Y812038D02*
X823938Y816102D01*
X828002D01*
X825970Y812038D01*
X775970Y812038D02*
X773938Y816102D01*
X778002D01*
X775970Y812038D01*
X825500Y923798D02*
X823468Y927862D01*
X827532D01*
X825500Y923798D01*
X775500Y923798D02*
X773468Y927862D01*
X777532D01*
X775500Y923798D01*
D23*
X1014412Y613410D02*
G03*
X1014412Y613410I-2032J0D01*
G01*
X1014222Y970280D02*
G03*
X1014222Y970280I-2032J0D01*
G01*
Y944880D02*
G03*
X1014222Y944880I-2032J0D01*
G01*
Y919480D02*
G03*
X1014222Y919480I-2032J0D01*
G01*
Y894080D02*
G03*
X1014222Y894080I-2032J0D01*
G01*
Y868680D02*
G03*
X1014222Y868680I-2032J0D01*
G01*
Y843280D02*
G03*
X1014222Y843280I-2032J0D01*
G01*
Y817880D02*
G03*
X1014222Y817880I-2032J0D01*
G01*
Y792480D02*
G03*
X1014222Y792480I-2032J0D01*
G01*
Y767080D02*
G03*
X1014222Y767080I-2032J0D01*
G01*
Y741680D02*
G03*
X1014222Y741680I-2032J0D01*
G01*
Y716280D02*
G03*
X1014222Y716280I-2032J0D01*
G01*
Y690880D02*
G03*
X1014222Y690880I-2032J0D01*
G01*
Y665480D02*
G03*
X1014222Y665480I-2032J0D01*
G01*
Y640080D02*
G03*
X1014222Y640080I-2032J0D01*
G01*
X1166622Y614680D02*
G03*
X1166622Y614680I-2032J0D01*
G01*
Y970280D02*
G03*
X1166622Y970280I-2032J0D01*
G01*
Y944880D02*
G03*
X1166622Y944880I-2032J0D01*
G01*
Y919480D02*
G03*
X1166622Y919480I-2032J0D01*
G01*
Y894080D02*
G03*
X1166622Y894080I-2032J0D01*
G01*
Y868680D02*
G03*
X1166622Y868680I-2032J0D01*
G01*
Y843280D02*
G03*
X1166622Y843280I-2032J0D01*
G01*
Y817880D02*
G03*
X1166622Y817880I-2032J0D01*
G01*
Y792480D02*
G03*
X1166622Y792480I-2032J0D01*
G01*
Y767080D02*
G03*
X1166622Y767080I-2032J0D01*
G01*
Y741680D02*
G03*
X1166622Y741680I-2032J0D01*
G01*
Y716280D02*
G03*
X1166622Y716280I-2032J0D01*
G01*
Y690880D02*
G03*
X1166622Y690880I-2032J0D01*
G01*
Y665480D02*
G03*
X1166622Y665480I-2032J0D01*
G01*
Y640080D02*
G03*
X1166622Y640080I-2032J0D01*
G01*
X837692Y607060D02*
G03*
X837692Y607060I-2032J0D01*
G01*
X863092D02*
G03*
X863092Y607060I-2032J0D01*
G01*
X888492D02*
G03*
X888492Y607060I-2032J0D01*
G01*
X913892D02*
G03*
X913892Y607060I-2032J0D01*
G01*
X939292D02*
G03*
X939292Y607060I-2032J0D01*
G01*
X964692D02*
G03*
X964692Y607060I-2032J0D01*
G01*
X863092Y734060D02*
G03*
X863092Y734060I-2032J0D01*
G01*
X888492D02*
G03*
X888492Y734060I-2032J0D01*
G01*
X913892D02*
G03*
X913892Y734060I-2032J0D01*
G01*
X939292D02*
G03*
X939292Y734060I-2032J0D01*
G01*
X964692D02*
G03*
X964692Y734060I-2032J0D01*
G01*
X837692D02*
G03*
X837692Y734060I-2032J0D01*
G01*
X840232Y986790D02*
G03*
X840232Y986790I-2032J0D01*
G01*
Y1012190D02*
G03*
X840232Y1012190I-2032J0D01*
G01*
X908812Y908050D02*
G03*
X908812Y908050I-2032J0D01*
G01*
X934212D02*
G03*
X934212Y908050I-2032J0D01*
G01*
X959612D02*
G03*
X959612Y908050I-2032J0D01*
G01*
X908812Y831850D02*
G03*
X908812Y831850I-2032J0D01*
G01*
X934212D02*
G03*
X934212Y831850I-2032J0D01*
G01*
X959612D02*
G03*
X959612Y831850I-2032J0D01*
G01*
X908812Y793750D02*
G03*
X908812Y793750I-2032J0D01*
G01*
X934212D02*
G03*
X934212Y793750I-2032J0D01*
G01*
X959612D02*
G03*
X959612Y793750I-2032J0D01*
G01*
X908812Y869950D02*
G03*
X908812Y869950I-2032J0D01*
G01*
X934212D02*
G03*
X934212Y869950I-2032J0D01*
G01*
X959612D02*
G03*
X959612Y869950I-2032J0D01*
G01*
M02*
