G04*
G04 #@! TF.GenerationSoftware,Altium Limited,Altium Designer,21.8.1 (53)*
G04*
G04 Layer_Physical_Order=1*
G04 Layer_Color=255*
%FSLAX44Y44*%
%MOMM*%
G71*
G04*
G04 #@! TF.SameCoordinates,4F22C770-9D15-417D-9D0D-A021CFFA2AF0*
G04*
G04*
G04 #@! TF.FilePolarity,Positive*
G04*
G01*
G75*
%ADD15C,0.2540*%
%ADD16C,0.5080*%
%ADD17R,3.2000X3.2000*%
%ADD18C,1.7780*%
%ADD19C,1.3500*%
%ADD20R,1.3500X1.3500*%
%ADD21R,1.3500X1.3500*%
G36*
X910190Y1003770D02*
X933850D01*
Y1007914D01*
X945906D01*
X953704Y1000116D01*
Y969653D01*
X926745Y942695D01*
X925524Y941103D01*
X924756Y939249D01*
X924494Y937260D01*
Y919744D01*
X923602Y919229D01*
X921001Y916628D01*
X919162Y913442D01*
X918823Y912175D01*
X917508D01*
X917431Y912462D01*
X915926Y915068D01*
X913798Y917196D01*
X911192Y918701D01*
X908285Y919480D01*
X908050D01*
Y908050D01*
Y896620D01*
X908285D01*
X911192Y897399D01*
X913798Y898904D01*
X915926Y901032D01*
X917431Y903638D01*
X917508Y903925D01*
X918823D01*
X919162Y902658D01*
X921001Y899472D01*
X923602Y896871D01*
X924494Y896356D01*
Y881644D01*
X923602Y881129D01*
X921001Y878528D01*
X919162Y875342D01*
X918823Y874075D01*
X917508D01*
X917431Y874362D01*
X915926Y876968D01*
X913798Y879096D01*
X911192Y880601D01*
X908285Y881380D01*
X908050D01*
Y869950D01*
Y858520D01*
X908285D01*
X911192Y859299D01*
X913798Y860804D01*
X915926Y862932D01*
X917431Y865538D01*
X917508Y865825D01*
X918823D01*
X919162Y864558D01*
X921001Y861372D01*
X923602Y858771D01*
X924494Y858256D01*
Y843544D01*
X923602Y843029D01*
X921001Y840428D01*
X919162Y837242D01*
X918823Y835975D01*
X917508D01*
X917431Y836262D01*
X915926Y838868D01*
X913798Y840996D01*
X911192Y842501D01*
X908285Y843280D01*
X908050D01*
Y831850D01*
Y820420D01*
X908285D01*
X911192Y821199D01*
X913798Y822704D01*
X915926Y824832D01*
X917431Y827438D01*
X917508Y827725D01*
X918823D01*
X919162Y826458D01*
X921001Y823272D01*
X923602Y820671D01*
X924494Y820156D01*
Y805444D01*
X923602Y804929D01*
X921001Y802328D01*
X919162Y799142D01*
X918823Y797875D01*
X917508D01*
X917431Y798162D01*
X915926Y800768D01*
X913798Y802896D01*
X911192Y804401D01*
X908285Y805180D01*
X908050D01*
Y793750D01*
Y782320D01*
X908285D01*
X911192Y783099D01*
X913798Y784604D01*
X915926Y786732D01*
X917431Y789338D01*
X917508Y789625D01*
X918823D01*
X919162Y788358D01*
X921001Y785172D01*
X923602Y782571D01*
X926218Y781061D01*
X926125Y779648D01*
X924432Y778947D01*
X920171Y776336D01*
X916538Y773232D01*
X916352Y773109D01*
X890645Y747401D01*
X888299Y748030D01*
X884621D01*
X881068Y747078D01*
X877882Y745239D01*
X875281Y742638D01*
X874395Y741103D01*
X873125D01*
X872239Y742638D01*
X869638Y745239D01*
X866452Y747078D01*
X862899Y748030D01*
X859221D01*
X855668Y747078D01*
X852482Y745239D01*
X849881Y742638D01*
X848995Y741103D01*
X847725D01*
X846839Y742638D01*
X844238Y745239D01*
X841052Y747078D01*
X837499Y748030D01*
X833821D01*
X830268Y747078D01*
X827082Y745239D01*
X824481Y742638D01*
X822642Y739452D01*
X821690Y735899D01*
Y732221D01*
X822642Y728668D01*
X824481Y725482D01*
X827082Y722881D01*
X830268Y721042D01*
X833821Y720090D01*
X837499D01*
X841052Y721042D01*
X844238Y722881D01*
X846839Y725482D01*
X847725Y727017D01*
X848995D01*
X849881Y725482D01*
X852482Y722881D01*
X855668Y721042D01*
X859221Y720090D01*
X862899D01*
X866452Y721042D01*
X869638Y722881D01*
X872239Y725482D01*
X873125Y727017D01*
X874395D01*
X875281Y725482D01*
X877882Y722881D01*
X881068Y721042D01*
X884621Y720090D01*
X888299D01*
X891852Y721042D01*
X895038Y722881D01*
X897639Y725482D01*
X898525Y727017D01*
X899795D01*
X900681Y725482D01*
X903282Y722881D01*
X906468Y721042D01*
X910021Y720090D01*
X913699D01*
X917252Y721042D01*
X920438Y722881D01*
X923039Y725482D01*
X923925Y727017D01*
X925195D01*
X926081Y725482D01*
X928682Y722881D01*
X931868Y721042D01*
X935421Y720090D01*
X939099D01*
X942652Y721042D01*
X945838Y722881D01*
X948439Y725482D01*
X949325Y727017D01*
X950595D01*
X951481Y725482D01*
X954082Y722881D01*
X957268Y721042D01*
X960821Y720090D01*
X964499D01*
X968052Y721042D01*
X971238Y722881D01*
X973839Y725482D01*
X975678Y728668D01*
X976630Y732221D01*
Y735899D01*
X975678Y739452D01*
X973839Y742638D01*
X971238Y745239D01*
X968052Y747078D01*
X964499Y748030D01*
X960821D01*
X957268Y747078D01*
X954082Y745239D01*
X951481Y742638D01*
X950595Y741103D01*
X949325D01*
X948439Y742638D01*
X945838Y745239D01*
X942652Y747078D01*
X939099Y748030D01*
X936782D01*
X936256Y749300D01*
X944559Y757602D01*
X944770Y757919D01*
X947519Y760028D01*
X951067Y761498D01*
X953622Y761834D01*
X954875Y761876D01*
Y761876D01*
X975743D01*
X975743Y761876D01*
Y761876D01*
X975849Y761897D01*
X981405Y762334D01*
X986929Y763660D01*
X992176Y765834D01*
X996950Y768759D01*
X997216Y768696D01*
X998220Y768157D01*
Y765241D01*
X999172Y761688D01*
X1001011Y758502D01*
X1003612Y755901D01*
X1005147Y755015D01*
Y753745D01*
X1003612Y752859D01*
X1001011Y750258D01*
X999172Y747072D01*
X998220Y743519D01*
Y739841D01*
X999172Y736288D01*
X1001011Y733102D01*
X1003612Y730501D01*
X1005147Y729615D01*
Y728345D01*
X1003612Y727459D01*
X1001011Y724858D01*
X999172Y721672D01*
X998220Y718119D01*
Y714441D01*
X999172Y710888D01*
X1001011Y707702D01*
X1003612Y705101D01*
X1005147Y704215D01*
Y702945D01*
X1003612Y702059D01*
X1001011Y699458D01*
X1000496Y698566D01*
X895350D01*
X893361Y698304D01*
X891507Y697536D01*
X889915Y696315D01*
X855625Y662025D01*
X854404Y660433D01*
X853636Y658579D01*
X853374Y656590D01*
Y618754D01*
X852482Y618239D01*
X849881Y615638D01*
X848995Y614103D01*
X847725D01*
X846839Y615638D01*
X844238Y618239D01*
X841052Y620078D01*
X837499Y621030D01*
X833821D01*
X830268Y620078D01*
X827082Y618239D01*
X824481Y615638D01*
X822642Y612452D01*
X821690Y608899D01*
Y605221D01*
X822642Y601668D01*
X824481Y598482D01*
X827082Y595881D01*
X830268Y594042D01*
X833821Y593090D01*
X837499D01*
X841052Y594042D01*
X844238Y595881D01*
X846839Y598482D01*
X847725Y600017D01*
X848995D01*
X849881Y598482D01*
X852482Y595881D01*
X855668Y594042D01*
X859221Y593090D01*
X862899D01*
X866452Y594042D01*
X869638Y595881D01*
X872239Y598482D01*
X873125Y600017D01*
X874395D01*
X875281Y598482D01*
X877882Y595881D01*
X881068Y594042D01*
X884621Y593090D01*
X888299D01*
X891852Y594042D01*
X895038Y595881D01*
X897639Y598482D01*
X898525Y600017D01*
X899795D01*
X900681Y598482D01*
X903282Y595881D01*
X906468Y594042D01*
X910021Y593090D01*
X913699D01*
X917252Y594042D01*
X920438Y595881D01*
X923039Y598482D01*
X924878Y601668D01*
X925217Y602935D01*
X926532D01*
X926609Y602648D01*
X928114Y600042D01*
X930242Y597914D01*
X932848Y596409D01*
X935755Y595630D01*
X935990D01*
Y607060D01*
Y618490D01*
X935755D01*
X932848Y617711D01*
X930242Y616206D01*
X928114Y614078D01*
X926609Y611472D01*
X926532Y611185D01*
X925217D01*
X924878Y612452D01*
X923039Y615638D01*
X920438Y618239D01*
X917252Y620078D01*
X913699Y621030D01*
X910021D01*
X906468Y620078D01*
X903282Y618239D01*
X900681Y615638D01*
X899795Y614103D01*
X898525D01*
X897639Y615638D01*
X895038Y618239D01*
X891852Y620078D01*
X888299Y621030D01*
X884621D01*
X881068Y620078D01*
X877882Y618239D01*
X875281Y615638D01*
X874395Y614103D01*
X873125D01*
X872239Y615638D01*
X869638Y618239D01*
X868746Y618754D01*
Y653406D01*
X898534Y683194D01*
X1000496D01*
X1001011Y682302D01*
X1003612Y679701D01*
X1005147Y678815D01*
Y677545D01*
X1003612Y676659D01*
X1001011Y674058D01*
X999172Y670872D01*
X998220Y667319D01*
Y663641D01*
X999172Y660088D01*
X1001011Y656902D01*
X1003612Y654301D01*
X1006798Y652462D01*
X1008065Y652123D01*
Y650808D01*
X1007778Y650731D01*
X1005172Y649226D01*
X1003044Y647098D01*
X1001539Y644492D01*
X1000760Y641585D01*
Y641350D01*
X1012190D01*
X1023620D01*
Y641585D01*
X1022841Y644492D01*
X1021336Y647098D01*
X1019208Y649226D01*
X1016602Y650731D01*
X1016315Y650808D01*
Y652123D01*
X1017582Y652462D01*
X1020768Y654301D01*
X1023369Y656902D01*
X1025208Y660088D01*
X1026160Y663641D01*
Y667319D01*
X1025208Y670872D01*
X1023369Y674058D01*
X1020768Y676659D01*
X1019233Y677545D01*
Y678815D01*
X1020768Y679701D01*
X1023369Y682302D01*
X1023884Y683194D01*
X1039486D01*
X1054034Y668646D01*
Y600918D01*
X1032302Y579186D01*
X836304D01*
X782386Y633104D01*
Y802240D01*
X787800D01*
Y825900D01*
X783656D01*
Y914000D01*
X787330D01*
Y937660D01*
X783656D01*
Y979796D01*
X808363Y1004504D01*
X826506D01*
X827021Y1003612D01*
X829622Y1001011D01*
X832808Y999172D01*
X834075Y998833D01*
Y997518D01*
X833788Y997441D01*
X831182Y995936D01*
X829054Y993808D01*
X827549Y991202D01*
X826770Y988295D01*
Y988060D01*
X838200D01*
X849630D01*
Y988295D01*
X848851Y991202D01*
X847728Y993146D01*
X848189Y994019D01*
X848503Y994344D01*
X882650D01*
X884639Y994606D01*
X886493Y995374D01*
X888085Y996595D01*
X899803Y1008314D01*
X910190D01*
Y1003770D01*
D02*
G37*
%LPC*%
G36*
X849630Y985520D02*
X839470D01*
Y975360D01*
X839705D01*
X842612Y976139D01*
X845218Y977644D01*
X847346Y979772D01*
X848851Y982378D01*
X849630Y985285D01*
Y985520D01*
D02*
G37*
G36*
X836930D02*
X826770D01*
Y985285D01*
X827549Y982378D01*
X829054Y979772D01*
X831182Y977644D01*
X833788Y976139D01*
X836695Y975360D01*
X836930D01*
Y985520D01*
D02*
G37*
G36*
X923290Y974877D02*
Y966870D01*
X931297D01*
X930677Y969186D01*
X929454Y971304D01*
X927724Y973034D01*
X925606Y974257D01*
X923290Y974877D01*
D02*
G37*
G36*
X920750Y974877D02*
X918434Y974257D01*
X916316Y973034D01*
X914586Y971304D01*
X913363Y969186D01*
X912742Y966870D01*
X920750D01*
Y974877D01*
D02*
G37*
G36*
X931297Y964330D02*
X923290D01*
Y956323D01*
X925606Y956943D01*
X927724Y958166D01*
X929454Y959896D01*
X930677Y962014D01*
X931297Y964330D01*
D02*
G37*
G36*
X920750D02*
X912742D01*
X913363Y962014D01*
X914586Y959896D01*
X916316Y958166D01*
X918434Y956943D01*
X920750Y956323D01*
Y964330D01*
D02*
G37*
G36*
X826770Y935107D02*
Y927100D01*
X834777D01*
X834157Y929416D01*
X832934Y931534D01*
X831204Y933264D01*
X829086Y934487D01*
X826770Y935107D01*
D02*
G37*
G36*
X824230D02*
X821914Y934487D01*
X819796Y933264D01*
X818066Y931534D01*
X816843Y929416D01*
X816223Y927100D01*
X824230D01*
Y935107D01*
D02*
G37*
G36*
X834777Y924560D02*
X826770D01*
Y916553D01*
X829086Y917173D01*
X831204Y918396D01*
X832934Y920126D01*
X834157Y922244D01*
X834777Y924560D01*
D02*
G37*
G36*
X824230D02*
X816223D01*
X816843Y922244D01*
X818066Y920126D01*
X819796Y918396D01*
X821914Y917173D01*
X824230Y916553D01*
Y924560D01*
D02*
G37*
G36*
X905510Y919480D02*
X905275D01*
X902368Y918701D01*
X899762Y917196D01*
X897634Y915068D01*
X896129Y912462D01*
X895350Y909555D01*
Y909320D01*
X905510D01*
Y919480D01*
D02*
G37*
G36*
Y906780D02*
X895350D01*
Y906545D01*
X896129Y903638D01*
X897634Y901032D01*
X899762Y898904D01*
X902368Y897399D01*
X905275Y896620D01*
X905510D01*
Y906780D01*
D02*
G37*
G36*
Y881380D02*
X905275D01*
X902368Y880601D01*
X899762Y879096D01*
X897634Y876968D01*
X896129Y874362D01*
X895350Y871455D01*
Y871220D01*
X905510D01*
Y881380D01*
D02*
G37*
G36*
Y868680D02*
X895350D01*
Y868445D01*
X896129Y865538D01*
X897634Y862932D01*
X899762Y860804D01*
X902368Y859299D01*
X905275Y858520D01*
X905510D01*
Y868680D01*
D02*
G37*
G36*
Y843280D02*
X905275D01*
X902368Y842501D01*
X899762Y840996D01*
X897634Y838868D01*
X896129Y836262D01*
X895350Y833355D01*
Y833120D01*
X905510D01*
Y843280D01*
D02*
G37*
G36*
Y830580D02*
X895350D01*
Y830345D01*
X896129Y827438D01*
X897634Y824832D01*
X899762Y822704D01*
X902368Y821199D01*
X905275Y820420D01*
X905510D01*
Y830580D01*
D02*
G37*
G36*
X827240Y823347D02*
Y815340D01*
X835247D01*
X834627Y817656D01*
X833404Y819774D01*
X831674Y821504D01*
X829556Y822727D01*
X827240Y823347D01*
D02*
G37*
G36*
X824700D02*
X822384Y822727D01*
X820266Y821504D01*
X818536Y819774D01*
X817313Y817656D01*
X816693Y815340D01*
X824700D01*
Y823347D01*
D02*
G37*
G36*
X835247Y812800D02*
X827240D01*
Y804792D01*
X829556Y805413D01*
X831674Y806636D01*
X833404Y808366D01*
X834627Y810484D01*
X835247Y812800D01*
D02*
G37*
G36*
X824700D02*
X816693D01*
X817313Y810484D01*
X818536Y808366D01*
X820266Y806636D01*
X822384Y805413D01*
X824700Y804792D01*
Y812800D01*
D02*
G37*
G36*
X905510Y805180D02*
X905275D01*
X902368Y804401D01*
X899762Y802896D01*
X897634Y800768D01*
X896129Y798162D01*
X895350Y795255D01*
Y795020D01*
X905510D01*
Y805180D01*
D02*
G37*
G36*
Y792480D02*
X895350D01*
Y792245D01*
X896129Y789338D01*
X897634Y786732D01*
X899762Y784604D01*
X902368Y783099D01*
X905275Y782320D01*
X905510D01*
Y792480D01*
D02*
G37*
G36*
X1023620Y638810D02*
X1013460D01*
Y628650D01*
X1013695D01*
X1016602Y629429D01*
X1019208Y630934D01*
X1021336Y633062D01*
X1022841Y635668D01*
X1023620Y638575D01*
Y638810D01*
D02*
G37*
G36*
X1010920D02*
X1000760D01*
Y638575D01*
X1001539Y635668D01*
X1003044Y633062D01*
X1005172Y630934D01*
X1007778Y629429D01*
X1010685Y628650D01*
X1010920D01*
Y638810D01*
D02*
G37*
G36*
X964499Y621030D02*
X960821D01*
X957268Y620078D01*
X954082Y618239D01*
X951481Y615638D01*
X949642Y612452D01*
X949303Y611185D01*
X947988D01*
X947911Y611472D01*
X946406Y614078D01*
X944278Y616206D01*
X941672Y617711D01*
X938765Y618490D01*
X938530D01*
Y607060D01*
Y595630D01*
X938765D01*
X941672Y596409D01*
X944278Y597914D01*
X946406Y600042D01*
X947911Y602648D01*
X947988Y602935D01*
X949303D01*
X949642Y601668D01*
X951481Y598482D01*
X954082Y595881D01*
X957268Y594042D01*
X960821Y593090D01*
X964499D01*
X968052Y594042D01*
X971238Y595881D01*
X973839Y598482D01*
X975678Y601668D01*
X976630Y605221D01*
Y608899D01*
X975678Y612452D01*
X973839Y615638D01*
X971238Y618239D01*
X968052Y620078D01*
X964499Y621030D01*
D02*
G37*
G36*
X1014219Y627380D02*
X1010541D01*
X1006988Y626428D01*
X1003802Y624589D01*
X1001201Y621988D01*
X999362Y618802D01*
X998410Y615249D01*
Y611571D01*
X999362Y608018D01*
X1001201Y604832D01*
X1003802Y602231D01*
X1006988Y600392D01*
X1010541Y599440D01*
X1014219D01*
X1017772Y600392D01*
X1020958Y602231D01*
X1023559Y604832D01*
X1025398Y608018D01*
X1026350Y611571D01*
Y615249D01*
X1025398Y618802D01*
X1023559Y621988D01*
X1020958Y624589D01*
X1017772Y626428D01*
X1014219Y627380D01*
D02*
G37*
%LPD*%
D15*
X954875Y768350D02*
G03*
X939980Y762180I0J-21064D01*
G01*
X975743Y768350D02*
G03*
X996769Y777059I0J29736D01*
G01*
X969919Y775970D02*
G03*
X987879Y783410I0J25400D01*
G01*
X1024767Y794242D02*
G03*
X1018392Y803563I-12577J-1762D01*
G01*
X1024767Y794242D02*
G03*
X1024890Y793750I2514J366D01*
G01*
X1023094Y777984D02*
G03*
X1024890Y782320I-4336J4336D01*
G01*
X999338Y794868D02*
G03*
X999974Y795951I-1805J1787D01*
G01*
X1018363Y803580D02*
G03*
X1018392Y803563I1285J2191D01*
G01*
X1003868Y802074D02*
G03*
X1003982Y802179I-1674J1911D01*
G01*
X1004384Y802523D02*
G03*
X1004036Y802233I1444J-2089D01*
G01*
X1016745Y804528D02*
G03*
X1015460Y804878I-1285J-2191D01*
G01*
X1006279Y803721D02*
G03*
X1006581Y803910I-1195J2242D01*
G01*
X1006581D02*
G03*
X1006916Y804033I-707J2439D01*
G01*
X1014718Y804926D02*
G03*
X1015200Y804878I493J2492D01*
G01*
X1006279Y803721D02*
G03*
X1004939Y802906I5911J-11241D01*
G01*
X938891Y775970D02*
G03*
X920930Y768531I0J-25400D01*
G01*
X1003868Y802074D02*
G03*
X999974Y795951I8321J-9594D01*
G01*
X1014718Y804926D02*
G03*
X1006916Y804033I-2528J-12446D01*
G01*
X954875Y768350D02*
X975743D01*
X938891Y775970D02*
X969919D01*
X1006581Y803910D02*
Y803910D01*
X1024890Y793750D02*
X1024890D01*
Y782320D02*
Y793750D01*
X987879Y783410D02*
X999338Y794868D01*
X1012190Y767080D02*
X1023094Y777984D01*
X1003982Y802179D02*
X1004036Y802233D01*
X1004938Y802906D02*
X1004939Y802906D01*
X1004384Y802523D02*
X1004938Y802906D01*
X1016745Y804528D02*
X1018363Y803580D01*
X1015200Y804878D02*
X1015460D01*
X1015200D02*
X1015200D01*
X886460Y734060D02*
X920930Y768531D01*
X996769Y777059D02*
X1012190Y792480D01*
X911860Y734060D02*
X939980Y762180D01*
X977900Y793750D02*
X999490Y815340D01*
X957580Y793750D02*
X977900D01*
X999490Y815340D02*
X1009650D01*
X1012190Y817880D01*
X993140Y843280D02*
X1012190D01*
X981710Y831850D02*
X993140Y843280D01*
X957580Y831850D02*
X981710D01*
X958215Y869315D02*
X1011555D01*
X1012190Y868680D01*
X957580Y869950D02*
X958215Y869315D01*
X957580Y908050D02*
X971550Y894080D01*
X1012190D01*
D16*
X837328Y581660D02*
X1019810D01*
X774700Y629920D02*
X833120Y571500D01*
X774700Y629920D02*
Y812800D01*
X833120Y571500D02*
X1035486D01*
X787400Y631588D02*
X837328Y581660D01*
X787400Y631588D02*
Y765374D01*
X825500Y967740D02*
X835770Y978010D01*
Y984360D02*
X838200Y986790D01*
X825970Y814070D02*
Y925360D01*
Y785330D02*
Y814070D01*
X825500Y925830D02*
Y967740D01*
X835770Y978010D02*
Y984360D01*
X825500Y925830D02*
X825970Y925360D01*
X838200Y986790D02*
X883920D01*
X808990Y768350D02*
X825970Y785330D01*
X790376Y768350D02*
X808990D01*
X787400Y765374D02*
X790376Y768350D01*
X1033780Y595630D02*
Y633730D01*
X1019810Y581660D02*
X1033780Y595630D01*
X953770Y640080D02*
X1012190D01*
X1027430D01*
X1033780Y633730D01*
X1035486Y571500D02*
X1061938Y597952D01*
X1061720Y598170D02*
X1061938Y597952D01*
X1061720Y598170D02*
Y671830D01*
X775970Y814070D02*
Y925830D01*
Y982980D01*
X774700Y812800D02*
X775970Y814070D01*
X1012190Y690880D02*
X1042670D01*
X1061720Y671830D01*
X932180Y869950D02*
Y937260D01*
X895350Y690880D02*
X1012190D01*
X861060Y656590D02*
X895350Y690880D01*
X861060Y607060D02*
Y656590D01*
X932180Y937260D02*
X961390Y966470D01*
Y1003300D01*
X949090Y1015600D02*
X961390Y1003300D01*
X922020Y1015600D02*
X949090D01*
X838200Y1012190D02*
X848360Y1002030D01*
X896620Y1016000D02*
X921620D01*
X882650Y1002030D02*
X896620Y1016000D01*
X848360Y1002030D02*
X882650D01*
X805180Y1012190D02*
X838200D01*
X905110Y965600D02*
X922020D01*
X883920Y986790D02*
X905110Y965600D01*
X906780Y908050D02*
Y937260D01*
X922020Y952500D01*
Y965600D01*
X921620Y1016000D02*
X922020Y1015600D01*
X775970Y982980D02*
X805180Y1012190D01*
X937260Y623570D02*
X953770Y640080D01*
X937260Y607060D02*
Y623570D01*
X906780Y793750D02*
Y831850D01*
X932180D02*
Y869950D01*
Y793750D02*
Y831850D01*
X906780D02*
Y869950D01*
Y908050D01*
D17*
X1182370Y575310D02*
D03*
X768350D02*
D03*
X1182370Y1032510D02*
D03*
X768350Y1031240D02*
D03*
D18*
X1012380Y613410D02*
D03*
X1012190Y970280D02*
D03*
Y944880D02*
D03*
Y919480D02*
D03*
Y894080D02*
D03*
Y868680D02*
D03*
Y843280D02*
D03*
Y817880D02*
D03*
Y792480D02*
D03*
Y767080D02*
D03*
Y741680D02*
D03*
Y716280D02*
D03*
Y690880D02*
D03*
Y665480D02*
D03*
Y640080D02*
D03*
X1164590Y614680D02*
D03*
Y970280D02*
D03*
Y944880D02*
D03*
Y919480D02*
D03*
Y894080D02*
D03*
Y868680D02*
D03*
Y843280D02*
D03*
Y817880D02*
D03*
Y792480D02*
D03*
Y767080D02*
D03*
Y741680D02*
D03*
Y716280D02*
D03*
Y690880D02*
D03*
Y665480D02*
D03*
Y640080D02*
D03*
X835660Y607060D02*
D03*
X861060D02*
D03*
X886460D02*
D03*
X911860D02*
D03*
X937260D02*
D03*
X962660D02*
D03*
X861060Y734060D02*
D03*
X886460D02*
D03*
X911860D02*
D03*
X937260D02*
D03*
X962660D02*
D03*
X835660D02*
D03*
X838200Y986790D02*
D03*
Y1012190D02*
D03*
X906780Y908050D02*
D03*
X932180D02*
D03*
X957580D02*
D03*
X906780Y831850D02*
D03*
X932180D02*
D03*
X957580D02*
D03*
X906780Y793750D02*
D03*
X932180D02*
D03*
X957580D02*
D03*
X906780Y869950D02*
D03*
X932180D02*
D03*
X957580D02*
D03*
D19*
X922020Y965600D02*
D03*
X825970Y814070D02*
D03*
X825500Y925830D02*
D03*
D20*
X922020Y1015600D02*
D03*
D21*
X775970Y814070D02*
D03*
X775500Y925830D02*
D03*
M02*
