G04*
G04 #@! TF.GenerationSoftware,Altium Limited,Altium Designer,21.8.1 (53)*
G04*
G04 Layer_Color=16711935*
%FSLAX44Y44*%
%MOMM*%
G71*
G04*
G04 #@! TF.SameCoordinates,4F22C770-9D15-417D-9D0D-A021CFFA2AF0*
G04*
G04*
G04 #@! TF.FilePolarity,Negative*
G04*
G01*
G75*
%ADD10R,3.4032X3.4032*%
%ADD11C,1.9812*%
%ADD12C,1.5532*%
%ADD13R,1.5532X1.5532*%
%ADD14R,1.5532X1.5532*%
D10*
X1182370Y575310D02*
D03*
X768350D02*
D03*
X1182370Y1032510D02*
D03*
X768350Y1031240D02*
D03*
D11*
X1012380Y613410D02*
D03*
X1012190Y970280D02*
D03*
Y944880D02*
D03*
Y919480D02*
D03*
Y894080D02*
D03*
Y868680D02*
D03*
Y843280D02*
D03*
Y817880D02*
D03*
Y792480D02*
D03*
Y767080D02*
D03*
Y741680D02*
D03*
Y716280D02*
D03*
Y690880D02*
D03*
Y665480D02*
D03*
Y640080D02*
D03*
X1164590Y614680D02*
D03*
Y970280D02*
D03*
Y944880D02*
D03*
Y919480D02*
D03*
Y894080D02*
D03*
Y868680D02*
D03*
Y843280D02*
D03*
Y817880D02*
D03*
Y792480D02*
D03*
Y767080D02*
D03*
Y741680D02*
D03*
Y716280D02*
D03*
Y690880D02*
D03*
Y665480D02*
D03*
Y640080D02*
D03*
X835660Y607060D02*
D03*
X861060D02*
D03*
X886460D02*
D03*
X911860D02*
D03*
X937260D02*
D03*
X962660D02*
D03*
X861060Y734060D02*
D03*
X886460D02*
D03*
X911860D02*
D03*
X937260D02*
D03*
X962660D02*
D03*
X835660D02*
D03*
X838200Y986790D02*
D03*
Y1012190D02*
D03*
X906780Y908050D02*
D03*
X932180D02*
D03*
X957580D02*
D03*
X906780Y831850D02*
D03*
X932180D02*
D03*
X957580D02*
D03*
X906780Y793750D02*
D03*
X932180D02*
D03*
X957580D02*
D03*
X906780Y869950D02*
D03*
X932180D02*
D03*
X957580D02*
D03*
D12*
X922020Y965600D02*
D03*
X825970Y814070D02*
D03*
X825500Y925830D02*
D03*
D13*
X922020Y1015600D02*
D03*
D14*
X775970Y814070D02*
D03*
X775500Y925830D02*
D03*
M02*
