M48
;Layer_Color=9474304
;FILE_FORMAT=4:4
METRIC,LZ
;TYPE=PLATED
T1F00S00C0.8000
T2F00S00C1.0000
T3F00S00C3.0000
%
T01
X0077597Y0081407
X007755Y0092583
X008255Y0092583
X0082597Y0081407
X0092202Y009656
X0092202Y010156
T02
X0083566Y0060706
X0086106
X0088646
X0091186
X0093726
X0096266
X0101238Y0061341
X0101219Y0064008
Y0066548
Y0069088
Y0071628
Y0074168
Y0076708
Y0079248
X0096266Y0073406
X0093726
X0091186
X0088646
X0086106
X0083566
X0116459Y0074168
Y0076708
Y0079248
Y0071628
Y0069088
Y0066548
Y0064008
Y0061468
Y0081788
Y0084328
Y0086868
Y0089408
Y0091948
Y0094488
Y0097028
X0101219
Y0094488
Y0091948
Y0089408
Y0086868
Y0084328
Y0081788
X0095758Y0083185
X0093218
X0090678
Y0079375
X0093218
X0095758
Y0086995
X0093218
X0090678
Y0090805
X0093218
X0095758
X008382Y0098679
Y0101219
T03
X0118237Y0057531
X0076835
Y0103124
X0118237Y0103251
M30
